<svg xmlns="http://www.w3.org/2000/svg" aria-hidden="true" style="position:absolute;width:0;height:0;overflow:hidden"><defs><symbol id="logo" viewBox="0 0 233 32"><path d="M19.471 17.348H6.279v12.649h-6.28V0h21.368v5.24H6.278v6.822H19.47v5.286zM32.201 25.66c3.569 0 5.376-2.259 5.376-6.776s-1.807-6.731-5.376-6.731c-3.569 0-5.376 2.214-5.376 6.731s1.807 6.776 5.376 6.776zm0 4.924c-7.183 0-11.43-4.789-11.43-11.701 0-7.048 4.382-11.701 11.43-11.701 6.957 0 11.294 4.608 11.294 11.701 0 7.048-4.382 11.701-11.294 11.701zM59.716 21.956h5.918c-.632 5.15-4.834 8.629-10.21 8.629-6.054 0-10.21-4.021-10.21-11.972s4.156-11.43 10.391-11.43c5.783 0 9.713 3.298 10.074 8.538h-5.918c-.316-2.304-1.988-3.659-4.201-3.659-2.485 0-4.518 1.581-4.518 6.415s2.033 7.183 4.337 7.183 4.111-1.31 4.337-3.704zM87.384 29.997h-5.557V26.88c-1.536 2.53-3.84 3.704-6.912 3.704-4.427 0-7.545-3.298-7.545-8.177V7.77h5.873v13.734c0 2.801 1.265 4.156 3.749 4.156 2.982 0 4.563-2.123 4.563-5.06V7.77h5.828v22.227zM108.978 14.502h-5.647c-.316-2.168-1.491-2.936-4.156-2.936-2.214 0-3.479.542-3.479 1.852s1.22 1.852 3.614 2.53c2.53.723 4.924 1.22 6.641 1.897 2.349.949 3.659 2.485 3.659 5.376 0 4.608-3.388 7.364-9.713 7.364-6.822 0-10.616-3.208-10.707-7.725h6.053c0 2.078 1.762 3.298 4.608 3.298 2.078 0 3.93-.632 3.93-2.304 0-1.581-1.672-2.078-3.569-2.53-3.75-.904-5.828-1.536-7.409-2.53-2.078-1.31-2.801-3.027-2.801-5.015 0-3.75 2.575-6.596 9.352-6.596 6.415 0 9.306 2.53 9.623 7.319zM117.412 29.997h-6.28v-6.099h6.28v6.099zM139.03 17.348h-13.192v12.649h-6.28V0h21.368v5.24h-15.089v6.822h13.192v5.286zM147.494 29.997h-5.873V7.77h5.512v2.665c1.943-2.982 4.201-3.253 6.596-3.253h.768v6.008a9.912 9.912 0 0 0-1.626-.136c-3.614 0-5.376 1.807-5.376 5.376v11.565zM168.495 21.549l.045-2.44c-.587.587-1.626.904-3.795 1.31-3.343.632-4.427 1.581-4.427 3.479 0 1.672.994 2.485 2.846 2.485 3.027 0 5.286-2.214 5.331-4.834zm5.918 8.448h-5.466c-.181-.542-.316-1.31-.361-1.988-1.4 1.536-3.75 2.575-6.731 2.575-5.06 0-7.409-2.485-7.409-6.099 0-6.415 4.292-7.138 10.21-7.951 2.936-.407 3.75-.994 3.75-2.53 0-1.446-1.446-2.304-3.75-2.304-2.665 0-3.75 1.31-4.021 3.298h-5.466c.09-4.608 2.62-7.816 9.758-7.816 7.048 0 9.487 3.162 9.487 8.764v14.05zM208.808 29.997h-5.737V16.534c0-2.665-1.4-4.563-3.479-4.563-2.168 0-3.75 2.033-3.75 4.744v13.282h-5.873V16.625c0-3.569-.949-4.472-3.524-4.472-2.349 0-3.569 1.446-3.569 4.337v13.508h-5.873V7.771h5.512v3.253c1.491-2.936 3.569-3.84 6.506-3.84 3.027 0 4.472.949 6.189 3.524 1.22-2.44 3.208-3.524 6.008-3.524 4.472 0 7.59 3.253 7.59 7.409v15.405zM216.619 16.715h9.08c-.09-3.298-2.259-4.879-4.563-4.879-2.349 0-4.292 1.807-4.518 4.879zm15.134 3.705h-15.315c.181 3.343 2.078 5.512 4.969 5.512 1.897 0 3.569-.949 3.976-2.485h6.054c-1.355 4.563-5.015 7.138-9.758 7.138-7.409 0-11.113-4.066-11.113-12.107 0-6.867 3.93-11.294 10.752-11.294s10.436 4.427 10.436 13.237z"/></symbol><symbol id="icon-bi_camera-fill" viewBox="0 0 32 32"><path d="M21 17a5 5 0 0 1-10 0 5 5 0 0 1 10 0z"/><path d="M4 8a4 4 0 0 0-4 4v12a4 4 0 0 0 4 4h24a4 4 0 0 0 4-4V12a4 4 0 0 0-4-4h-2.344a3.988 3.988 0 0 1-2.828-1.172l-1.656-1.656A3.988 3.988 0 0 0 18.344 4h-4.688a3.988 3.988 0 0 0-2.828 1.172L9.172 6.828A3.988 3.988 0 0 1 6.344 8H4zm1 4a1 1 0 0 1 0-2 1 1 0 0 1 0 2zm18 5a7 7 0 1 1-14 0 7 7 0 1 1 14 0z"/></symbol><symbol id="icon-star" viewBox="0 0 32 32"><path stroke-linecap="round" stroke-linejoin="round" stroke-width="2.4" d="m16 2.667 4.12 8.346 9.213 1.347-6.666 6.493 1.573 9.174L16 23.693l-8.24 4.334 1.573-9.174-6.666-6.493 9.213-1.347L16 2.667z"/></symbol><symbol id="arrow-stroke" viewBox="0 0 58 32"><path d="M40 2.144 57.6 16 40 29.856V18.4H0v-4.8h40V2.144z"/></symbol><symbol id="icon-arrow-narrow-up-right" viewBox="0 0 32 32"><path stroke-linecap="round" stroke-linejoin="round" stroke-width="2.08" d="M8 24 24 8M13.333 8H24v10.667"/></symbol><symbol id="menu" viewBox="0 0 36 32"><path d="M1.199 4.002a2.4 2.4 0 0 1 2.4-2.4h28.8a2.4 2.4 0 1 1 0 4.8h-28.8a2.4 2.4 0 0 1-2.4-2.4zM1.199 16.002a2.4 2.4 0 0 1 2.4-2.4h28.8a2.4 2.4 0 1 1 0 4.8h-28.8a2.4 2.4 0 0 1-2.4-2.4zM1.199 28.002a2.4 2.4 0 0 1 2.4-2.4h28.8a2.4 2.4 0 1 1 0 4.8h-28.8a2.4 2.4 0 0 1-2.4-2.4z"/></symbol><symbol id="close-menu-btn" viewBox="0 0 32 32"><path d="m16.017 14.595 7.775-7.775 1.431 1.431-7.775 7.775 7.775 7.775-1.431 1.431-7.775-7.775-7.775 7.775-1.431-1.431 7.775-7.775-7.775-7.775L8.242 6.82l7.775 7.775z"/></symbol><symbol id="icon-footer-logo" viewBox="0 0 203 32"><path d="M16.534 17.72H5.332v10.588H0V3.2h18.146v4.386H5.333v5.71h11.202v4.424zM27.344 24.678c3.031 0 4.565-1.891 4.565-5.672s-1.535-5.634-4.565-5.634c-3.031 0-4.565 1.853-4.565 5.634s1.535 5.672 4.565 5.672zm0 4.122c-6.1 0-9.706-4.008-9.706-9.794 0-5.899 3.721-9.794 9.706-9.794 5.908 0 9.591 3.857 9.591 9.794 0 5.899-3.721 9.794-9.591 9.794zM50.71 21.578h5.026c-.537 4.311-4.105 7.222-8.67 7.222-5.141 0-8.67-3.365-8.67-10.021s3.529-9.567 8.824-9.567c4.91 0 8.248 2.76 8.555 7.147H50.75c-.269-1.928-1.688-3.063-3.568-3.063-2.11 0-3.836 1.323-3.836 5.37s1.726 6.012 3.683 6.012 3.491-1.096 3.683-3.101zM74.205 28.308h-4.719v-2.609c-1.304 2.118-3.261 3.101-5.869 3.101-3.76 0-6.407-2.76-6.407-6.844V9.704h4.987v11.495c0 2.344 1.074 3.479 3.184 3.479 2.532 0 3.875-1.777 3.875-4.235V9.704h4.949v18.605zM92.542 15.338h-4.795c-.268-1.815-1.266-2.458-3.529-2.458-1.88 0-2.954.454-2.954 1.55s1.036 1.55 3.069 2.118c2.148.605 4.182 1.021 5.639 1.588 1.995.794 3.107 2.08 3.107 4.5 0 3.857-2.877 6.164-8.248 6.164-5.793 0-9.015-2.685-9.092-6.466h5.141c0 1.74 1.496 2.76 3.913 2.76 1.765 0 3.338-.529 3.338-1.928 0-1.324-1.419-1.74-3.031-2.118-3.184-.756-4.949-1.286-6.292-2.118-1.765-1.097-2.378-2.533-2.378-4.197 0-3.139 2.187-5.521 7.941-5.521 5.448 0 7.903 2.118 8.171 6.126zM99.704 28.308h-5.332v-5.105h5.332v5.105zM118.061 17.72h-11.202v10.588h-5.332V3.2h18.146v4.386H106.86v5.71h11.202v4.424zM125.249 28.308h-4.987V9.703h4.68v2.231c1.65-2.496 3.568-2.723 5.601-2.723h.652v5.029a8.463 8.463 0 0 0-1.381-.113c-3.069 0-4.565 1.513-4.565 4.5v9.68zM143.083 21.237l.038-2.042c-.499.492-1.381.756-3.223 1.097-2.839.529-3.76 1.324-3.76 2.912 0 1.399.844 2.08 2.417 2.08 2.57 0 4.488-1.853 4.527-4.046zm5.025 7.071h-4.642c-.153-.454-.268-1.097-.307-1.664-1.189 1.286-3.184 2.155-5.716 2.155-4.297 0-6.292-2.08-6.292-5.105 0-5.37 3.644-5.975 8.67-6.655 2.494-.34 3.184-.832 3.184-2.118 0-1.21-1.228-1.928-3.184-1.928-2.263 0-3.184 1.097-3.414 2.76h-4.642c.077-3.857 2.225-6.542 8.286-6.542 5.985 0 8.056 2.647 8.056 7.336v11.76zM177.315 28.308h-4.872V17.039c0-2.231-1.189-3.819-2.954-3.819-1.842 0-3.184 1.702-3.184 3.971v11.117h-4.987V17.115c0-2.987-.806-3.744-2.993-3.744-1.995 0-3.031 1.21-3.031 3.63v11.306h-4.987V9.702h4.68v2.723c1.266-2.458 3.031-3.214 5.524-3.214 2.571 0 3.798.794 5.256 2.949 1.035-2.042 2.723-2.949 5.102-2.949 3.798 0 6.445 2.723 6.445 6.201v12.895zM183.949 17.191h7.71c-.077-2.76-1.918-4.084-3.875-4.084-1.994 0-3.643 1.513-3.835 4.084zm12.851 3.101h-13.005c.154 2.798 1.765 4.613 4.219 4.613 1.611 0 3.03-.794 3.376-2.08h5.141c-1.15 3.819-4.258 5.975-8.286 5.975-6.291 0-9.437-3.403-9.437-10.134 0-5.748 3.338-9.454 9.13-9.454 5.794 0 8.862 3.706 8.862 11.079z"/></symbol><symbol id="icon-line" viewBox="0 0 6000 32"><path stroke-width="16" d="M0 16h6160"/></symbol></defs></svg>