<svg aria-hidden="true" style="position: absolute; width: 0; height: 0; overflow: hidden;" version="1.1" xmlns="http://www.w3.org/2000/svg" xmlns:xlink="http://www.w3.org/1999/xlink">
<defs>
<symbol id="photo-camera-favicon" viewBox="0 0 32 32">
<path fill="#bea69e" style="fill: var(--color1, #bea69e)" d="M21.161 18.159c0 2.846-2.315 5.161-5.161 5.161s-5.16-2.315-5.16-5.161c0-2.846 2.314-5.161 5.16-5.161s5.161 2.316 5.161 5.161zM32 10.831v14.658c0 1.954-1.584 3.538-3.538 3.538h-24.923c-1.954 0-3.538-1.584-3.538-3.538v-14.658c0-1.954 1.584-3.538 3.538-3.538h4.352v-1.224c0-1.71 1.385-3.096 3.096-3.096h10.026c1.711 0 3.096 1.386 3.096 3.096v1.223h4.352c1.954 0.001 3.538 1.585 3.538 3.539zM23.815 18.159c0-4.309-3.506-7.815-7.815-7.815s-7.814 3.506-7.814 7.815c0 4.309 3.506 7.815 7.814 7.815s7.815-3.506 7.815-7.815z"></path>
</symbol>
</defs>
</svg>
