<svg aria-hidden="true" style="position: absolute; width: 0; height: 0; overflow: hidden;" version="1.1"
    xmlns="http://www.w3.org/2000/svg" xmlns:xlink="http://www.w3.org/1999/xlink">
    <defs>
        <symbol id="icon-bi_camera-fill" viewBox="0 0 32 32">
            <path d="M21 17c0 2.761-2.239 5-5 5s-5-2.239-5-5v0c0-2.761 2.239-5 5-5s5 2.239 5 5v0z"></path>
            <path
                d="M4 8c-2.209 0-4 1.791-4 4v0 12c0 2.209 1.791 4 4 4v0h24c2.209 0 4-1.791 4-4v0-12c0-2.209-1.791-4-4-4v0h-2.344c-1.104-0-2.104-0.448-2.828-1.172l-1.656-1.656c-0.724-0.724-1.724-1.172-2.828-1.172h-4.688c-1.104 0-2.104 0.448-2.828 1.172l-1.656 1.656c-0.724 0.724-1.724 1.172-2.828 1.172h-2.344zM5 12c-0.552 0-1-0.448-1-1s0.448-1 1-1v0c0.552 0 1 0.448 1 1s-0.448 1-1 1v0zM23 17c0 3.866-3.134 7-7 7s-7-3.134-7-7v0c0-3.866 3.134-7 7-7s7 3.134 7 7v0z">
            </path>
        </symbol>
        <symbol id="icon-star" viewBox="0 0 32 32">
            <path stroke-linejoin="round" stroke-linecap="round" stroke-miterlimit="4" stroke-width="2.4"
                d="M16 2.667l4.12 8.346 9.213 1.347-6.666 6.493 1.573 9.174-8.24-4.334-8.24 4.334 1.573-9.174-6.666-6.493 9.213-1.347 4.12-8.346z">
            </path>
        </symbol>
        <symbol id="arrow-stroke" viewBox="0 0 58 32">
        <path d="M40 2.144l17.6 13.856-17.6 13.856v-11.456h-40v-4.8h40v-11.456z"></path>
    </symbol>
        <symbol id="icon-arrow-narrow-up-right" viewBox="0 0 32 32">
            <path stroke-linejoin="round" stroke-linecap="round" stroke-miterlimit="4" stroke-width="2.0800"
                d="M8 24l16-16M13.333 8h10.667v10.667"></path>
        </symbol>
        <symbol id="icon-Nav" viewBox="0 0 32 32">
            <path stroke-linejoin="miter" stroke-linecap="round" stroke-miterlimit="4" stroke-width="2.4"
                d="M6.070 8.351h24.73M6.070 21.927h24.73M13.722 15.139h17.078"></path>
        </symbol>
        <symbol id="icon-x" viewBox="0 0 32 32">
            <path stroke-linejoin="round" stroke-linecap="round" stroke-miterlimit="4" stroke-width="2.4"
                d="M24 8l-16 16M8 8l16 16"></path>
        </symbol>
    </defs>
</svg>